<?xml version="1.0" encoding="iso-8859-1"?>
<!-- Generator: Adobe Illustrator 19.0.0, SVG Export Plug-In . SVG Version: 6.00 Build 0)  -->
<svg version="1.1" id="Layer_1" xmlns="http://www.w3.org/2000/svg" xmlns:xlink="http://www.w3.org/1999/xlink" x="0px" y="0px"
	 viewBox="0 0 512.001 512.001" style="enable-background:new 0 0 512.001 512.001;" xml:space="preserve">
<path style="fill:#FF6465;" d="M48.886,33.212l68.345,447.384c2.76,18.063,18.294,31.406,36.568,31.406h204.406
	c18.273,0,33.808-13.342,36.568-31.406l68.345-447.384H48.886z"/>
<polygon style="opacity:0.1;fill:#171D26;enable-background:new    ;" points="58.334,95.065 453.668,95.065 463.117,33.21 
	48.886,33.21 "/>
<path style="fill:#F2E9DC;" d="M469.459,0H42.543C24.201,0,9.333,14.868,9.333,33.212s14.868,33.21,33.21,33.21h426.915
	c18.342,0,33.21-14.868,33.21-33.21S487.801,0,469.459,0z"/>
<g>
	<path style="fill:#D2555A;" d="M411.402,123.17H100.601c-5.16,0-9.34-4.181-9.34-9.34c0-5.16,4.181-9.34,9.34-9.34H411.4
		c5.16,0,9.34,4.181,9.34,9.34C420.741,118.989,416.56,123.17,411.402,123.17z"/>
	<path style="fill:#D2555A;" d="M387.177,164.784H124.825c-5.16,0-9.34-4.181-9.34-9.34c0-5.16,4.181-9.34,9.34-9.34h262.352
		c5.16,0,9.34,4.181,9.34,9.34C396.517,160.603,392.336,164.784,387.177,164.784z"/>
	<path style="fill:#D2555A;" d="M360.449,427.3H151.555c-5.16,0-9.34-4.181-9.34-9.34c0-5.16,4.181-9.34,9.34-9.34h208.893
		c5.16,0,9.34,4.181,9.34,9.34C369.789,423.119,365.607,427.3,360.449,427.3z"/>
	<path style="fill:#D2555A;" d="M344.165,468.913H167.836c-5.16,0-9.34-4.181-9.34-9.34s4.181-9.34,9.34-9.34h176.329
		c5.16,0,9.34,4.181,9.34,9.34S349.325,468.913,344.165,468.913z"/>
</g>
<path style="opacity:0.2;fill:#171D26;enable-background:new    ;" d="M191.953,480.596L128.682,66.422h-11.416
	c-18.342,0-33.21-14.868-33.21-33.21C84.055,14.868,98.923,0,117.265,0H42.543C24.201,0,9.333,14.868,9.333,33.21
	s14.868,33.21,33.21,33.21h11.416l63.272,414.174c2.76,18.063,18.294,31.406,36.568,31.406h74.722
	C210.247,512,194.712,498.658,191.953,480.596z"/>
<g>
</g>
<g>
</g>
<g>
</g>
<g>
</g>
<g>
</g>
<g>
</g>
<g>
</g>
<g>
</g>
<g>
</g>
<g>
</g>
<g>
</g>
<g>
</g>
<g>
</g>
<g>
</g>
<g>
</g>
</svg>
